/* XPM */
static char * hexalate_xpm[] = {
"32 32 300 2",
"  	c None",
". 	c #7A6464",
"+ 	c #895D5D",
"@ 	c #9A5F5F",
"# 	c #985F5F",
"$ 	c #875D5D",
"% 	c #786464",
"& 	c #5F5F5F",
"* 	c #4D4D4D",
"= 	c #392626",
"- 	c #621C1C",
"; 	c #981414",
"> 	c #D50C0C",
", 	c #D00C0C",
"' 	c #921414",
") 	c #5E1C1C",
"! 	c #352A2A",
"~ 	c #5C5C5C",
"{ 	c #2F2F2F",
"] 	c #0C0C0C",
"^ 	c #000000",
"/ 	c #0C0000",
"( 	c #4E0000",
"_ 	c #960000",
": 	c #DE0000",
"< 	c #D80000",
"[ 	c #900000",
"} 	c #480000",
"| 	c #060000",
"1 	c #5A5A5A",
"2 	c #343434",
"3 	c #0A0A0A",
"4 	c #420000",
"5 	c #D20000",
"6 	c #8A0000",
"7 	c #3C0000",
"8 	c #0B0B0B",
"9 	c #252525",
"0 	c #300000",
"a 	c #840000",
"b 	c #7E0000",
"c 	c #2A0000",
"d 	c #262626",
"e 	c #655A65",
"f 	c #242424",
"g 	c #1E0000",
"h 	c #780000",
"i 	c #CC0000",
"j 	c #720000",
"k 	c #180000",
"l 	c #67675A",
"m 	c #622562",
"n 	c #2C002C",
"o 	c #6C0000",
"p 	c #C60000",
"q 	c #660000",
"r 	c #020200",
"s 	c #323200",
"t 	c #676726",
"u 	c #9D359D",
"v 	c #8C008C",
"w 	c #620062",
"x 	c #320032",
"y 	c #5A0000",
"z 	c #C00000",
"A 	c #540000",
"B 	c #383800",
"C 	c #686800",
"D 	c #929200",
"E 	c #A2A237",
"F 	c #A05CA0",
"G 	c #E30AE3",
"H 	c #C800C8",
"I 	c #9E009E",
"J 	c #6E006E",
"K 	c #380038",
"L 	c #BA0000",
"M 	c #3E3E00",
"N 	c #747400",
"O 	c #A4A400",
"P 	c #CECE00",
"Q 	c #E8E80B",
"R 	c #9D9D5D",
"S 	c #A42FA4",
"T 	c #D600D6",
"U 	c #FA00FA",
"V 	c #E000E0",
"W 	c #B000B0",
"X 	c #7A007A",
"Y 	c #3E003E",
"Z 	c #240000",
"` 	c #B40000",
" .	c #444400",
"..	c #808000",
"+.	c #B6B600",
"@.	c #E6E600",
"#.	c #F4F400",
"$.	c #D0D000",
"%.	c #9D9D32",
"&.	c #795F79",
"*.	c #7C0C7C",
"=.	c #9A009A",
"-.	c #B800B8",
";.	c #DC00DC",
">.	c #F800F8",
",.	c #920092",
"'.	c #4A004A",
").	c #A80000",
"!.	c #A20000",
"~.	c #505000",
"{.	c #989800",
"].	c #FEFE00",
"^.	c #D6D600",
"/.	c #B2B200",
"(.	c #949400",
"_.	c #77770D",
":.	c #787860",
"<.	c #5D4D5D",
"[.	c #400040",
"}.	c #580058",
"|.	c #700070",
"1.	c #8E008E",
"2.	c #B200B2",
"3.	c #E200E2",
"4.	c #EC00EC",
"5.	c #AA00AA",
"6.	c #5C005C",
"7.	c #626200",
"8.	c #B0B000",
"9.	c #F2F200",
"0.	c #DCDC00",
"a.	c #ACAC00",
"b.	c #888800",
"c.	c #6A6A00",
"d.	c #525200",
"e.	c #3A3A00",
"f.	c #5C5C4F",
"g.	c #272727",
"h.	c #100010",
"i.	c #220022",
"j.	c #5E005E",
"k.	c #820082",
"l.	c #AC00AC",
"m.	c #E800E8",
"n.	c #CE00CE",
"o.	c #740074",
"p.	c #7A7A00",
"q.	c #D4D400",
"r.	c #E2E200",
"s.	c #A6A600",
"t.	c #7C7C00",
"u.	c #585800",
"v.	c #1C1C00",
"w.	c #0A0A00",
"x.	c #292929",
"y.	c #646464",
"z.	c #1C1C1C",
"A.	c #1C001C",
"B.	c #6A006A",
"C.	c #A600A6",
"D.	c #F400F4",
"E.	c #EEEE00",
"F.	c #A0A000",
"G.	c #646400",
"H.	c #161600",
"I.	c #1D1D1D",
"J.	c #5D5D5D",
"K.	c #141414",
"L.	c #0A000A",
"M.	c #040400",
"N.	c #151515",
"O.	c #5E5E5E",
"P.	c #1F1F00",
"Q.	c #0D0D0D",
"R.	c #00001F",
"S.	c #001F00",
"T.	c #000004",
"U.	c #00003A",
"V.	c #00008E",
"W.	c #0000EC",
"X.	c #00EC00",
"Y.	c #008E00",
"Z.	c #003A00",
"`.	c #000400",
" +	c #000016",
".+	c #00006A",
"++	c #0000A0",
"@+	c #0000EE",
"#+	c #00009E",
"$+	c #003C3C",
"%+	c #009E00",
"&+	c #00EE00",
"*+	c #00A000",
"=+	c #006A00",
"-+	c #001600",
";+	c #2A2A2A",
">+	c #00000A",
",+	c #000022",
"'+	c #000058",
")+	c #00007C",
"!+	c #0000AC",
"~+	c #0000E2",
"{+	c #0000D4",
"]+	c #00007A",
"^+	c #007272",
"/+	c #007A00",
"(+	c #00D400",
"_+	c #00E200",
":+	c #00AC00",
"<+	c #007C00",
"[+	c #005800",
"}+	c #002200",
"|+	c #000A00",
"1+	c #4D4D5D",
"2+	c #000052",
"3+	c #0000B2",
"4+	c #0000DC",
"5+	c #0000B0",
"6+	c #000062",
"7+	c #009090",
"8+	c #006200",
"9+	c #00B000",
"0+	c #00DC00",
"a+	c #00B200",
"b+	c #005200",
"c+	c #4F5D4F",
"d+	c #5D5D77",
"e+	c #0C0C7C",
"f+	c #000094",
"g+	c #0000D6",
"h+	c #0000FE",
"i+	c #0000CE",
"j+	c #000092",
"k+	c #000050",
"l+	c #00A8A8",
"m+	c #005000",
"n+	c #009200",
"o+	c #00CE00",
"p+	c #00FE00",
"q+	c #00D600",
"r+	c #009400",
"s+	c #0D7C0D",
"t+	c #607960",
"u+	c #2F2FA1",
"v+	c #0000FA",
"w+	c #0000E0",
"x+	c #0000B6",
"y+	c #000080",
"z+	c #000044",
"A+	c #002424",
"B+	c #00B4B4",
"C+	c #004400",
"D+	c #008000",
"E+	c #00B600",
"F+	c #00E000",
"G+	c #00FA00",
"H+	c #32A132",
"I+	c #5A5A9D",
"J+	c #0B0BE4",
"K+	c #0000C8",
"L+	c #00006E",
"M+	c #00003E",
"N+	c #00C0C0",
"O+	c #003E00",
"P+	c #006E00",
"Q+	c #00C800",
"R+	c #0CE30C",
"S+	c #5B9C5B",
"T+	c #3535A0",
"U+	c #000032",
"V+	c #005454",
"W+	c #00C6C6",
"X+	c #003200",
"Y+	c #369C36",
"Z+	c #262667",
"`+	c #000606",
" @	c #006666",
".@	c #00CCCC",
"+@	c #276627",
"@@	c #5A5A67",
"#@	c #001818",
"$@	c #00D2D2",
"%@	c #5B675B",
"&@	c #003030",
"*@	c #007E7E",
"=@	c #5B5B5B",
"-@	c #008A8A",
";@	c #00D8D8",
">@	c #363636",
",@	c #323232",
"'@	c #004E4E",
")@	c #606060",
"!@	c #4F4F4F",
"~@	c #2A3B3B",
"{@	c #1D6363",
"]@	c #159797",
"^@	c #0DD4D4",
"/@	c #293C3C",
"(@	c #5E8989",
"_@	c #5E9696",
"                          . + @ # $ %                           ",
"                    & * = - ; > , ' ) ! * ~                     ",
"                ~ { ] ^ / ( _ : < [ } | ^ ] { 1                 ",
"              2 3 ^ ^ ^ ^ 4 [ < 5 6 7 ^ ^ ^ ^ 8 2               ",
"          1 9 ^ ^ ^ ^ ^ ^ 0 a < 5 b c ^ ^ ^ ^ ^ ^ d 1           ",
"        e f ^ ^ ^ ^ ^ ^ ^ g h 5 i j k ^ ^ ^ ^ ^ ^ ^ d l         ",
"        m n ^ ^ ^ ^ ^ ^ ^ | o i p q ^ ^ ^ ^ ^ ^ ^ r s t         ",
"      u v w x ^ ^ ^ ^ ^ ^ ^ y p z A ^ ^ ^ ^ ^ ^ r B C D E       ",
"    F G H I J K ^ ^ ^ ^ ^ ^ 4 z L 7 ^ ^ ^ ^ ^ r M N O P Q R     ",
"    S T U V W X Y ^ ^ ^ ^ ^ Z L ` g ^ ^ ^ ^ r  ...+.@.#.$.%.    ",
"  &.*.=.-.;.>.H ,.'.^ ^ ^ ^ ^ ).!.^ ^ ^ ^ r ~.{.P ].^./.(._.:.  ",
"  <.[.}.|.1.2.3.4.5.6.^ ^ ^ ^ _ [ ^ ^ ^ r 7.8.9.0.a.b.c.d.e.f.  ",
"  g.^ h.i.[.j.k.l.m.n.o.^ ^ ^ h j ^ ^ r p.q.r.s.t.u.e.v.w.^ x.  ",
"y.z.^ ^ ^ ^ ^ A.[.B.C.D.I ^ ^ 4 7 ^ r O E.F.G.e.H.^ ^ ^ ^ ^ I.  ",
"J.K.^ ^ ^ ^ ^ ^ ^ ^ L.[.1.4.^ ^ ^ r 9.b.e.M.^ ^ ^ ^ ^ ^ ^ ^ N.O.",
"& ] ^ ^ ^ ^ ^ ^ ^ ^ ^ ^ ^ ^ i.^ ^ P.^ ^ ^ ^ ^ ^ ^ ^ ^ ^ ^ ^ Q.O.",
"& ] ^ ^ ^ ^ ^ ^ ^ ^ ^ ^ ^ ^ R.^ ^ S.^ ^ ^ ^ ^ ^ ^ ^ ^ ^ ^ ^ Q.O.",
"J.K.^ ^ ^ ^ ^ ^ ^ ^ T.U.V.W.^ ^ ^ ^ X.Y.Z.`.^ ^ ^ ^ ^ ^ ^ ^ N.O.",
"y.z.^ ^ ^ ^ ^  +U..+++@+#+^ ^ $+$+^ ^ %+&+*+=+Z.-+^ ^ ^ ^ ^ I.  ",
"  ;+^ >+,+U.'+)+!+~+{+]+^ ^ ^ ^+^+^ ^ ^ /+(+_+:+<+[+Z.}+|+^ ;+  ",
"  1+U.2+.+V.3+4+W.5+6+^ ^ ^ ^ 7+7+^ ^ ^ ^ 8+9+X.0+a+Y.=+b+Z.c+  ",
"  d+e+f+3+g+h+i+j+k+^ ^ ^ ^ ^ l+l+^ ^ ^ ^ ^ m+n+o+p+q+a+r+s+t+  ",
"    u+g+v+w+x+y+z+^ ^ ^ ^ ^ A+B+B+A+^ ^ ^ ^ ^ C+D+E+F+G+q+H+    ",
"    I+J+K+#+L+M+^ ^ ^ ^ ^ ^ $+N+N+$+^ ^ ^ ^ ^ ^ O+P+%+Q+R+S+    ",
"      T+j+6+U+^ ^ ^ ^ ^ ^ ^ V+W+W+V+^ ^ ^ ^ ^ ^ ^ X+8+n+Y+      ",
"        Z+U+^ ^ ^ ^ ^ ^ ^ `+ @.@.@ @`+^ ^ ^ ^ ^ ^ ^ X++@        ",
"        @@d ^ ^ ^ ^ ^ ^ ^ #@^+$@$@^+#@^ ^ ^ ^ ^ ^ ^ 9 %@        ",
"          1 d ^ ^ ^ ^ ^ ^ &@*@$@$@*@&@^ ^ ^ ^ ^ ^ g.=@          ",
"              2 8 ^ ^ ^ ^ $+-@;@;@-@$+^ ^ ^ ^ ] >@              ",
"                J.,@Q.^ `+'@7+;@;@7+'@`+^ Q.,@=@                ",
"                    )@!@~@{@]@^@^@]@{@/@!@)@                    ",
"                            (@_@_@(@                            "};
